<?xml version="1.0" encoding="UTF-8" standalone="no"?>
<!-- Created with Inkscape (http://www.inkscape.org/) -->

<svg
   width="66mm"
   height="70mm"
   viewBox="57 114 66 70"
   version="1.1"
   id="svg1"
   inkscape:version="1.4.3 (0d15f75042, 2025-12-25)"
   sodipodi:docname="logo.svg"
   xmlns:inkscape="http://www.inkscape.org/namespaces/inkscape"
   xmlns:sodipodi="http://sodipodi.sourceforge.net/DTD/sodipodi-0.dtd"
   xmlns:xlink="http://www.w3.org/1999/xlink"
   xmlns="http://www.w3.org/2000/svg"
   xmlns:svg="http://www.w3.org/2000/svg">
  <sodipodi:namedview
     id="namedview1"
     pagecolor="#ffffff"
     bordercolor="#000000"
     borderopacity="0.25"
     inkscape:showpageshadow="2"
     inkscape:pageopacity="0.0"
     inkscape:pagecheckerboard="0"
     inkscape:deskcolor="#d1d1d1"
     inkscape:document-units="mm"
     inkscape:zoom="1.8850449"
     inkscape:cx="400.52097"
     inkscape:cy="654.09583"
     inkscape:window-width="1524"
     inkscape:window-height="1643"
     inkscape:window-x="20"
     inkscape:window-y="20"
     inkscape:window-maximized="0"
     inkscape:current-layer="layer1" />
  <defs
     id="defs1">
    <linearGradient
       id="linearGradient14"
       inkscape:collect="always">
      <stop
         style="stop-color:#005880;stop-opacity:1;"
         offset="0"
         id="stop14" />
      <stop
         style="stop-color:#003380;stop-opacity:0.77972603;"
         offset="0.62198091"
         id="stop16" />
      <stop
         style="stop-color:#000680;stop-opacity:0;"
         offset="1"
         id="stop15" />
    </linearGradient>
    <linearGradient
       id="swatch11">
      <stop
         style="stop-color:#000000;stop-opacity:1;"
         offset="0"
         id="stop11" />
      <stop
         style="stop-color:#000000;stop-opacity:1;"
         offset="1"
         id="stop12" />
    </linearGradient>
    <rect
       x="213.25752"
       y="449.85666"
       width="204.76965"
       height="235.53816"
       id="rect2" />
    <rect
       x="285.40434"
       y="440.30782"
       width="207.95261"
       height="187.79394"
       id="rect1" />
    <linearGradient
       inkscape:collect="always"
       xlink:href="#linearGradient14"
       id="linearGradient15"
       x1="307.5625"
       y1="568.82806"
       x2="472.35062"
       y2="479.55093"
       gradientUnits="userSpaceOnUse" />
  </defs>
  <g
     inkscape:label="Layer 1"
     id="layer1"
     inkscape:groupmode="layer">
    <path
       style="font-size:192px;font-family:FreeSans;-inkscape-font-specification:FreeSans;white-space:pre;fill:url(#linearGradient15);fill-rule:nonzero;stroke-width:1.00157481;stroke-dasharray:none;fill-opacity:1"
       d="m 340.93781,531.26542 h 15.936 l -17.28,53.76 c -1.536,4.48 -2.304,7.68 -2.304,9.6 0,2.304 0.96,4.288 2.88,5.952 1.92,1.664 4.16,2.496 6.72,2.496 8.192,0 15.616,-4.544 22.272,-13.632 6.656,-9.088 9.984,-19.264 9.984,-30.528 0,-16 -6.72,-29.824 -20.16,-41.472 -13.312,-11.648 -29.12,-17.472 -47.424,-17.472 -20.224,0 -37.888,7.488 -52.992,22.464 -14.976,14.976 -22.464,32.512 -22.464,52.608 0,18.304 6.912,33.728 20.736,46.272 13.824,12.416 30.912,18.624 51.264,18.624 10.112,0 22.464,-2.048 37.056,-6.144 19.94827,-6.3461 39.07211,-19.92828 49.90039,-30.48361 12.96019,-15.29102 21.53716,-28.99883 33.20344,-48.72408 l 14.90648,-26.35372 -21.25634,9.90724 4.76803,-13.95267 32.17666,-18.54277 5.61278,39.55136 -9.39502,9.47854 -3.244,-22.47615 c -4.01403,9.49592 -8.39998,18.84307 -13.65961,27.84075 -27.46091,45.42839 -28.17995,45.34537 -42.48646,59.87898 -18.90081,16.61477 -30.72498,19.07624 -45.15035,26.74013 -14.336,5.376 -28.8,8.064 -43.392,8.064 -15.872,0 -30.528,-3.456 -43.968,-10.368 -13.44,-6.784 -24.064,-16.064 -31.872,-27.84 -7.68,-11.776 -11.52,-24.64 -11.52,-38.592 0,-16.384 4.224,-31.68 12.672,-45.888 8.576,-14.336 20.096,-25.728 34.56,-34.176 14.592,-8.448 30.272,-12.672 47.04,-12.672 22.4,0 41.6,7.04 57.6,21.12 16.128,14.08 24.192,30.848 24.192,50.304 0,15.616 -4.672,29.504 -14.016,41.664 -9.344,12.16 -22.08,18.24 -38.208,18.24 -12.288,0 -19.328,-4.928 -21.12,-14.784 -8.448,9.216 -17.536,13.824 -27.264,13.824 -8.96,0 -16.448,-3.328 -22.464,-9.984 -5.888,-6.784 -8.832,-15.168 -8.832,-25.152 0,-13.952 4.992,-26.304 14.976,-37.056 9.984,-10.752 21.44,-16.128 34.368,-16.128 10.752,0 18.56,5.568 23.424,16.704 z m -40.704,72 c 8.32,0 15.36,-5.312 21.12,-15.936 5.888,-10.624 8.832,-20.8 8.832,-30.528 0,-4.864 -1.728,-8.96 -5.184,-12.288 -3.456,-3.328 -7.744,-4.992 -12.864,-4.992 -8.064,0 -15.232,4.16 -21.504,12.48 -6.272,8.32 -9.408,17.856 -9.408,28.608 0,6.272 1.856,11.648 5.568,16.128 3.712,4.352 8.192,6.528 13.44,6.528 z"
       id="text2"
       transform="scale(0.26458333)"
       aria-label="@"
       sodipodi:nodetypes="cccssssscscscscccccccccccccsccsccscssscscsssccscssssscs" />
  </g>
</svg>
